G04 EAGLE Gerber X2 export*
%TF.Part,Single*%
%TF.FileFunction,Other,Top Paste*%
%TF.FilePolarity,Positive*%
%TF.GenerationSoftware,Autodesk,EAGLE,9.6.2*%
%TF.CreationDate,2024-01-02T09:51:12Z*%
G75*
%MOMM*%
%FSLAX34Y34*%
%LPD*%
%INTop Paste*%
%AMOC8*
5,1,8,0,0,1.08239X$1,22.5*%
G01*
%ADD10C,0.150000*%
%ADD11R,1.100000X1.000000*%
%ADD12C,0.800000*%
%ADD13C,0.400000*%


D10*
X102310Y57440D02*
X84810Y57440D01*
X84810Y61940D01*
X102310Y61940D01*
X102310Y57440D01*
X102310Y58865D02*
X84810Y58865D01*
X84810Y60290D02*
X102310Y60290D01*
X102310Y61715D02*
X84810Y61715D01*
X84810Y44740D02*
X102310Y44740D01*
X84810Y44740D02*
X84810Y49240D01*
X102310Y49240D01*
X102310Y44740D01*
X102310Y46165D02*
X84810Y46165D01*
X84810Y47590D02*
X102310Y47590D01*
X102310Y49015D02*
X84810Y49015D01*
X84810Y32040D02*
X102310Y32040D01*
X84810Y32040D02*
X84810Y36540D01*
X102310Y36540D01*
X102310Y32040D01*
X102310Y33465D02*
X84810Y33465D01*
X84810Y34890D02*
X102310Y34890D01*
X102310Y36315D02*
X84810Y36315D01*
X84810Y19340D02*
X102310Y19340D01*
X84810Y19340D02*
X84810Y23840D01*
X102310Y23840D01*
X102310Y19340D01*
X102310Y20765D02*
X84810Y20765D01*
X84810Y22190D02*
X102310Y22190D01*
X102310Y23615D02*
X84810Y23615D01*
X133910Y19340D02*
X151410Y19340D01*
X133910Y19340D02*
X133910Y23840D01*
X151410Y23840D01*
X151410Y19340D01*
X151410Y20765D02*
X133910Y20765D01*
X133910Y22190D02*
X151410Y22190D01*
X151410Y23615D02*
X133910Y23615D01*
X133910Y32040D02*
X151410Y32040D01*
X133910Y32040D02*
X133910Y36540D01*
X151410Y36540D01*
X151410Y32040D01*
X151410Y33465D02*
X133910Y33465D01*
X133910Y34890D02*
X151410Y34890D01*
X151410Y36315D02*
X133910Y36315D01*
X133910Y44740D02*
X151410Y44740D01*
X133910Y44740D02*
X133910Y49240D01*
X151410Y49240D01*
X151410Y44740D01*
X151410Y46165D02*
X133910Y46165D01*
X133910Y47590D02*
X151410Y47590D01*
X151410Y49015D02*
X133910Y49015D01*
X133910Y57440D02*
X151410Y57440D01*
X133910Y57440D02*
X133910Y61940D01*
X151410Y61940D01*
X151410Y57440D01*
X151410Y58865D02*
X133910Y58865D01*
X133910Y60290D02*
X151410Y60290D01*
X151410Y61715D02*
X133910Y61715D01*
D11*
X105800Y88900D03*
X122800Y88900D03*
X41275Y83575D03*
X41275Y100575D03*
X60325Y83575D03*
X60325Y100575D03*
D12*
X61180Y57150D02*
X59180Y57150D01*
D13*
X48800Y54150D02*
X48800Y60150D01*
X52800Y60150D01*
X52800Y54150D01*
X48800Y54150D01*
X48800Y57950D02*
X52800Y57950D01*
D12*
X42420Y57150D02*
X40420Y57150D01*
M02*
