G04 EAGLE Gerber X2 export*
%TF.Part,Single*%
%TF.FileFunction,Other,Bottom Copper*%
%TF.FilePolarity,Positive*%
%TF.GenerationSoftware,Autodesk,EAGLE,9.6.2*%
%TF.CreationDate,2024-01-02T09:51:12Z*%
G75*
%MOMM*%
%FSLAX34Y34*%
%LPD*%
%INBottom Copper*%
%AMOC8*
5,1,8,0,0,1.08239X$1,22.5*%
G01*
%ADD10C,0.604000*%
%ADD11C,0.406400*%

G36*
X164526Y3815D02*
X164526Y3815D01*
X164575Y3814D01*
X165634Y3919D01*
X165661Y3926D01*
X165689Y3926D01*
X165850Y3973D01*
X167807Y4783D01*
X167863Y4818D01*
X167923Y4844D01*
X167988Y4896D01*
X168016Y4913D01*
X168029Y4928D01*
X168054Y4948D01*
X169552Y6446D01*
X169590Y6499D01*
X169636Y6546D01*
X169676Y6619D01*
X169695Y6646D01*
X169701Y6664D01*
X169717Y6693D01*
X170527Y8650D01*
X170533Y8677D01*
X170547Y8702D01*
X170581Y8866D01*
X170686Y9925D01*
X170684Y9952D01*
X170689Y10000D01*
X170689Y104200D01*
X170685Y104226D01*
X170686Y104275D01*
X170581Y105334D01*
X170574Y105361D01*
X170574Y105389D01*
X170527Y105550D01*
X169717Y107507D01*
X169682Y107563D01*
X169656Y107623D01*
X169604Y107688D01*
X169587Y107716D01*
X169572Y107729D01*
X169552Y107754D01*
X168054Y109252D01*
X168001Y109290D01*
X167954Y109336D01*
X167881Y109376D01*
X167854Y109395D01*
X167836Y109401D01*
X167807Y109417D01*
X165850Y110227D01*
X165823Y110233D01*
X165798Y110247D01*
X165634Y110281D01*
X164575Y110386D01*
X164551Y110384D01*
X164536Y110386D01*
X164532Y110386D01*
X164500Y110389D01*
X10000Y110389D01*
X9978Y110386D01*
X9964Y110386D01*
X9961Y110385D01*
X9925Y110386D01*
X8866Y110281D01*
X8839Y110274D01*
X8811Y110274D01*
X8650Y110227D01*
X6693Y109417D01*
X6637Y109382D01*
X6577Y109356D01*
X6512Y109304D01*
X6484Y109287D01*
X6471Y109272D01*
X6446Y109252D01*
X4948Y107754D01*
X4910Y107701D01*
X4864Y107654D01*
X4824Y107581D01*
X4805Y107554D01*
X4799Y107536D01*
X4783Y107507D01*
X3973Y105550D01*
X3967Y105523D01*
X3953Y105498D01*
X3919Y105334D01*
X3814Y104275D01*
X3816Y104248D01*
X3811Y104200D01*
X3811Y10000D01*
X3815Y9974D01*
X3814Y9925D01*
X3919Y8866D01*
X3926Y8839D01*
X3926Y8811D01*
X3973Y8650D01*
X4783Y6693D01*
X4818Y6637D01*
X4844Y6577D01*
X4896Y6512D01*
X4913Y6484D01*
X4928Y6471D01*
X4948Y6446D01*
X6446Y4948D01*
X6499Y4910D01*
X6546Y4864D01*
X6619Y4824D01*
X6646Y4805D01*
X6664Y4799D01*
X6693Y4783D01*
X8650Y3973D01*
X8677Y3967D01*
X8702Y3953D01*
X8866Y3919D01*
X9925Y3814D01*
X9952Y3816D01*
X10000Y3811D01*
X164500Y3811D01*
X164526Y3815D01*
G37*
%LPC*%
G36*
X121942Y14505D02*
X121942Y14505D01*
X121177Y15270D01*
X121104Y15323D01*
X121034Y15383D01*
X121004Y15395D01*
X120978Y15414D01*
X120891Y15441D01*
X120806Y15475D01*
X120765Y15479D01*
X120743Y15486D01*
X120710Y15485D01*
X120639Y15493D01*
X62027Y15493D01*
X47243Y30277D01*
X47243Y44439D01*
X47229Y44529D01*
X47221Y44620D01*
X47209Y44650D01*
X47204Y44682D01*
X47161Y44763D01*
X47125Y44846D01*
X47099Y44879D01*
X47088Y44899D01*
X47065Y44921D01*
X47020Y44977D01*
X46255Y45742D01*
X46255Y49508D01*
X48917Y52170D01*
X52683Y52170D01*
X55345Y49508D01*
X55345Y45742D01*
X54580Y44977D01*
X54527Y44904D01*
X54467Y44834D01*
X54455Y44804D01*
X54436Y44778D01*
X54409Y44691D01*
X54375Y44606D01*
X54371Y44565D01*
X54364Y44543D01*
X54365Y44510D01*
X54357Y44439D01*
X54357Y33539D01*
X54371Y33448D01*
X54379Y33358D01*
X54391Y33328D01*
X54396Y33296D01*
X54439Y33215D01*
X54475Y33131D01*
X54501Y33099D01*
X54512Y33078D01*
X54535Y33056D01*
X54580Y33000D01*
X64750Y22830D01*
X64824Y22777D01*
X64894Y22717D01*
X64924Y22705D01*
X64950Y22686D01*
X65037Y22659D01*
X65122Y22625D01*
X65163Y22621D01*
X65185Y22614D01*
X65217Y22615D01*
X65289Y22607D01*
X120639Y22607D01*
X120729Y22621D01*
X120820Y22629D01*
X120850Y22641D01*
X120882Y22646D01*
X120963Y22689D01*
X121046Y22725D01*
X121079Y22751D01*
X121099Y22762D01*
X121121Y22785D01*
X121177Y22830D01*
X121942Y23595D01*
X125708Y23595D01*
X128370Y20933D01*
X128370Y17167D01*
X125708Y14505D01*
X121942Y14505D01*
G37*
%LPD*%
D10*
X146050Y104775D03*
X50800Y47625D03*
D11*
X50800Y31750D02*
X63500Y19050D01*
X50800Y31750D02*
X50800Y47625D01*
X63500Y19050D02*
X123825Y19050D01*
D10*
X123825Y19050D03*
M02*
