G04 EAGLE Gerber X2 export*
%TF.Part,Single*%
%TF.FileFunction,Other,Board Outline*%
%TF.FilePolarity,Positive*%
%TF.GenerationSoftware,Autodesk,EAGLE,9.6.2*%
%TF.CreationDate,2024-01-02T09:51:12Z*%
G75*
%MOMM*%
%FSLAX34Y34*%
%LPD*%
%INBoard Outline*%
%AMOC8*
5,1,8,0,0,1.08239X$1,22.5*%
G01*
%ADD10C,0.000000*%
%ADD11C,0.254000*%


D10*
X164500Y114200D02*
X10000Y114200D01*
X9758Y114197D01*
X9517Y114188D01*
X9276Y114174D01*
X9035Y114153D01*
X8795Y114127D01*
X8555Y114095D01*
X8316Y114057D01*
X8079Y114014D01*
X7842Y113964D01*
X7607Y113909D01*
X7373Y113849D01*
X7141Y113782D01*
X6910Y113711D01*
X6681Y113633D01*
X6454Y113550D01*
X6229Y113462D01*
X6006Y113368D01*
X5786Y113269D01*
X5568Y113164D01*
X5353Y113055D01*
X5140Y112940D01*
X4930Y112820D01*
X4724Y112695D01*
X4520Y112565D01*
X4319Y112430D01*
X4122Y112290D01*
X3928Y112146D01*
X3738Y111997D01*
X3552Y111843D01*
X3369Y111685D01*
X3190Y111523D01*
X3015Y111356D01*
X2844Y111185D01*
X2677Y111010D01*
X2515Y110831D01*
X2357Y110648D01*
X2203Y110462D01*
X2054Y110272D01*
X1910Y110078D01*
X1770Y109881D01*
X1635Y109680D01*
X1505Y109476D01*
X1380Y109270D01*
X1260Y109060D01*
X1145Y108847D01*
X1036Y108632D01*
X931Y108414D01*
X832Y108194D01*
X738Y107971D01*
X650Y107746D01*
X567Y107519D01*
X489Y107290D01*
X418Y107059D01*
X351Y106827D01*
X291Y106593D01*
X236Y106358D01*
X186Y106121D01*
X143Y105884D01*
X105Y105645D01*
X73Y105405D01*
X47Y105165D01*
X26Y104924D01*
X12Y104683D01*
X3Y104442D01*
X0Y104200D01*
X0Y10000D01*
X3Y9758D01*
X12Y9517D01*
X26Y9276D01*
X47Y9035D01*
X73Y8795D01*
X105Y8555D01*
X143Y8316D01*
X186Y8079D01*
X236Y7842D01*
X291Y7607D01*
X351Y7373D01*
X418Y7141D01*
X489Y6910D01*
X567Y6681D01*
X650Y6454D01*
X738Y6229D01*
X832Y6006D01*
X931Y5786D01*
X1036Y5568D01*
X1145Y5353D01*
X1260Y5140D01*
X1380Y4930D01*
X1505Y4724D01*
X1635Y4520D01*
X1770Y4319D01*
X1910Y4122D01*
X2054Y3928D01*
X2203Y3738D01*
X2357Y3552D01*
X2515Y3369D01*
X2677Y3190D01*
X2844Y3015D01*
X3015Y2844D01*
X3190Y2677D01*
X3369Y2515D01*
X3552Y2357D01*
X3738Y2203D01*
X3928Y2054D01*
X4122Y1910D01*
X4319Y1770D01*
X4520Y1635D01*
X4724Y1505D01*
X4930Y1380D01*
X5140Y1260D01*
X5353Y1145D01*
X5568Y1036D01*
X5786Y931D01*
X6006Y832D01*
X6229Y738D01*
X6454Y650D01*
X6681Y567D01*
X6910Y489D01*
X7141Y418D01*
X7373Y351D01*
X7607Y291D01*
X7842Y236D01*
X8079Y186D01*
X8316Y143D01*
X8555Y105D01*
X8795Y73D01*
X9035Y47D01*
X9276Y26D01*
X9517Y12D01*
X9758Y3D01*
X10000Y0D01*
X164500Y0D01*
X164742Y3D01*
X164983Y12D01*
X165224Y26D01*
X165465Y47D01*
X165705Y73D01*
X165945Y105D01*
X166184Y143D01*
X166421Y186D01*
X166658Y236D01*
X166893Y291D01*
X167127Y351D01*
X167359Y418D01*
X167590Y489D01*
X167819Y567D01*
X168046Y650D01*
X168271Y738D01*
X168494Y832D01*
X168714Y931D01*
X168932Y1036D01*
X169147Y1145D01*
X169360Y1260D01*
X169570Y1380D01*
X169776Y1505D01*
X169980Y1635D01*
X170181Y1770D01*
X170378Y1910D01*
X170572Y2054D01*
X170762Y2203D01*
X170948Y2357D01*
X171131Y2515D01*
X171310Y2677D01*
X171485Y2844D01*
X171656Y3015D01*
X171823Y3190D01*
X171985Y3369D01*
X172143Y3552D01*
X172297Y3738D01*
X172446Y3928D01*
X172590Y4122D01*
X172730Y4319D01*
X172865Y4520D01*
X172995Y4724D01*
X173120Y4930D01*
X173240Y5140D01*
X173355Y5353D01*
X173464Y5568D01*
X173569Y5786D01*
X173668Y6006D01*
X173762Y6229D01*
X173850Y6454D01*
X173933Y6681D01*
X174011Y6910D01*
X174082Y7141D01*
X174149Y7373D01*
X174209Y7607D01*
X174264Y7842D01*
X174314Y8079D01*
X174357Y8316D01*
X174395Y8555D01*
X174427Y8795D01*
X174453Y9035D01*
X174474Y9276D01*
X174488Y9517D01*
X174497Y9758D01*
X174500Y10000D01*
X174500Y104200D01*
X174497Y104442D01*
X174488Y104683D01*
X174474Y104924D01*
X174453Y105165D01*
X174427Y105405D01*
X174395Y105645D01*
X174357Y105884D01*
X174314Y106121D01*
X174264Y106358D01*
X174209Y106593D01*
X174149Y106827D01*
X174082Y107059D01*
X174011Y107290D01*
X173933Y107519D01*
X173850Y107746D01*
X173762Y107971D01*
X173668Y108194D01*
X173569Y108414D01*
X173464Y108632D01*
X173355Y108847D01*
X173240Y109060D01*
X173120Y109270D01*
X172995Y109476D01*
X172865Y109680D01*
X172730Y109881D01*
X172590Y110078D01*
X172446Y110272D01*
X172297Y110462D01*
X172143Y110648D01*
X171985Y110831D01*
X171823Y111010D01*
X171656Y111185D01*
X171485Y111356D01*
X171310Y111523D01*
X171131Y111685D01*
X170948Y111843D01*
X170762Y111997D01*
X170572Y112146D01*
X170378Y112290D01*
X170181Y112430D01*
X169980Y112565D01*
X169776Y112695D01*
X169570Y112820D01*
X169360Y112940D01*
X169147Y113055D01*
X168932Y113164D01*
X168714Y113269D01*
X168494Y113368D01*
X168271Y113462D01*
X168046Y113550D01*
X167819Y113633D01*
X167590Y113711D01*
X167359Y113782D01*
X167127Y113849D01*
X166893Y113909D01*
X166658Y113964D01*
X166421Y114014D01*
X166184Y114057D01*
X165945Y114095D01*
X165705Y114127D01*
X165465Y114153D01*
X165224Y114174D01*
X164983Y114188D01*
X164742Y114197D01*
X164500Y114200D01*
D11*
X0Y10000D02*
X38Y9128D01*
X152Y8264D01*
X341Y7412D01*
X603Y6580D01*
X937Y5774D01*
X1340Y5000D01*
X1808Y4264D01*
X2340Y3572D01*
X2929Y2929D01*
X3572Y2340D01*
X4264Y1808D01*
X5000Y1340D01*
X5774Y937D01*
X6580Y603D01*
X7412Y341D01*
X8264Y152D01*
X9128Y38D01*
X10000Y0D01*
X164500Y0D01*
X165372Y38D01*
X166236Y152D01*
X167088Y341D01*
X167920Y603D01*
X168726Y937D01*
X169500Y1340D01*
X170236Y1808D01*
X170928Y2340D01*
X171571Y2929D01*
X172160Y3572D01*
X172692Y4264D01*
X173160Y5000D01*
X173563Y5774D01*
X173897Y6580D01*
X174159Y7412D01*
X174348Y8264D01*
X174462Y9128D01*
X174500Y10000D01*
X174500Y104200D01*
X174462Y105072D01*
X174348Y105936D01*
X174159Y106788D01*
X173897Y107620D01*
X173563Y108426D01*
X173160Y109200D01*
X172692Y109936D01*
X172160Y110628D01*
X171571Y111271D01*
X170928Y111860D01*
X170236Y112392D01*
X169500Y112860D01*
X168726Y113263D01*
X167920Y113597D01*
X167088Y113859D01*
X166236Y114048D01*
X165372Y114162D01*
X164500Y114200D01*
X10000Y114200D01*
X9128Y114162D01*
X8264Y114048D01*
X7412Y113859D01*
X6580Y113597D01*
X5774Y113263D01*
X5000Y112860D01*
X4264Y112392D01*
X3572Y111860D01*
X2929Y111271D01*
X2340Y110628D01*
X1808Y109936D01*
X1340Y109200D01*
X937Y108426D01*
X603Y107620D01*
X341Y106788D01*
X152Y105936D01*
X38Y105072D01*
X0Y104200D01*
X0Y10000D01*
M02*
