G04 EAGLE Gerber X2 export*
%TF.Part,Single*%
%TF.FileFunction,Other,Bottom Silkscreen*%
%TF.FilePolarity,Positive*%
%TF.GenerationSoftware,Autodesk,EAGLE,9.6.2*%
%TF.CreationDate,2024-01-02T09:51:12Z*%
G75*
%MOMM*%
%FSLAX34Y34*%
%LPD*%
%INBottom Silkscreen*%
%AMOC8*
5,1,8,0,0,1.08239X$1,22.5*%
G01*
%ADD10C,0.609600*%
%ADD11C,0.127000*%


D10*
X152527Y69723D02*
X152527Y101727D01*
X143637Y101727D01*
X143421Y101724D01*
X143204Y101716D01*
X142988Y101703D01*
X142772Y101685D01*
X142557Y101661D01*
X142343Y101632D01*
X142129Y101598D01*
X141916Y101559D01*
X141704Y101514D01*
X141493Y101465D01*
X141284Y101410D01*
X141076Y101350D01*
X140869Y101285D01*
X140664Y101215D01*
X140461Y101140D01*
X140260Y101061D01*
X140061Y100976D01*
X139864Y100886D01*
X139669Y100792D01*
X139476Y100693D01*
X139286Y100590D01*
X139099Y100481D01*
X138914Y100368D01*
X138732Y100251D01*
X138553Y100130D01*
X138377Y100004D01*
X138204Y99873D01*
X138034Y99739D01*
X137868Y99601D01*
X137705Y99458D01*
X137545Y99312D01*
X137389Y99161D01*
X137237Y99007D01*
X137089Y98850D01*
X136944Y98688D01*
X136804Y98524D01*
X136667Y98356D01*
X136535Y98184D01*
X136407Y98010D01*
X136283Y97832D01*
X136164Y97652D01*
X136049Y97468D01*
X135938Y97282D01*
X135832Y97093D01*
X135731Y96902D01*
X135634Y96708D01*
X135542Y96512D01*
X135455Y96314D01*
X135373Y96114D01*
X135296Y95911D01*
X135223Y95707D01*
X135156Y95502D01*
X135093Y95294D01*
X135036Y95086D01*
X134984Y94875D01*
X134937Y94664D01*
X134895Y94452D01*
X134858Y94238D01*
X134827Y94024D01*
X134800Y93809D01*
X134779Y93594D01*
X134763Y93378D01*
X134753Y93162D01*
X134748Y92945D01*
X134748Y92729D01*
X134753Y92512D01*
X134763Y92296D01*
X134779Y92080D01*
X134800Y91865D01*
X134827Y91650D01*
X134858Y91436D01*
X134895Y91222D01*
X134937Y91010D01*
X134984Y90799D01*
X135036Y90588D01*
X135093Y90380D01*
X135156Y90172D01*
X135223Y89967D01*
X135296Y89763D01*
X135373Y89560D01*
X135455Y89360D01*
X135542Y89162D01*
X135634Y88966D01*
X135731Y88772D01*
X135832Y88581D01*
X135938Y88392D01*
X136049Y88206D01*
X136164Y88022D01*
X136283Y87842D01*
X136407Y87664D01*
X136535Y87490D01*
X136667Y87318D01*
X136804Y87150D01*
X136944Y86986D01*
X137089Y86824D01*
X137237Y86667D01*
X137389Y86513D01*
X137545Y86362D01*
X137705Y86216D01*
X137868Y86073D01*
X138034Y85935D01*
X138204Y85801D01*
X138377Y85670D01*
X138553Y85544D01*
X138732Y85423D01*
X138914Y85306D01*
X139099Y85193D01*
X139286Y85084D01*
X139476Y84981D01*
X139669Y84882D01*
X139864Y84788D01*
X140061Y84698D01*
X140260Y84613D01*
X140461Y84534D01*
X140664Y84459D01*
X140869Y84389D01*
X141076Y84324D01*
X141284Y84264D01*
X141493Y84209D01*
X141704Y84160D01*
X141916Y84115D01*
X142129Y84076D01*
X142343Y84042D01*
X142557Y84013D01*
X142772Y83989D01*
X142988Y83971D01*
X143204Y83958D01*
X143421Y83950D01*
X143637Y83947D01*
X152527Y83947D01*
X121941Y69723D02*
X121941Y101727D01*
X125497Y69723D02*
X118385Y69723D01*
X118385Y101727D02*
X125497Y101727D01*
X100885Y69723D02*
X93773Y69723D01*
X100885Y69723D02*
X101057Y69725D01*
X101229Y69731D01*
X101400Y69742D01*
X101571Y69756D01*
X101742Y69775D01*
X101913Y69798D01*
X102082Y69825D01*
X102251Y69855D01*
X102420Y69891D01*
X102587Y69930D01*
X102753Y69973D01*
X102919Y70020D01*
X103083Y70071D01*
X103246Y70126D01*
X103407Y70185D01*
X103567Y70248D01*
X103725Y70315D01*
X103882Y70385D01*
X104037Y70460D01*
X104190Y70538D01*
X104341Y70619D01*
X104490Y70705D01*
X104638Y70794D01*
X104782Y70886D01*
X104925Y70982D01*
X105065Y71081D01*
X105203Y71184D01*
X105338Y71290D01*
X105471Y71399D01*
X105601Y71512D01*
X105728Y71627D01*
X105853Y71746D01*
X105974Y71867D01*
X106093Y71992D01*
X106208Y72119D01*
X106321Y72249D01*
X106430Y72382D01*
X106536Y72517D01*
X106639Y72655D01*
X106738Y72795D01*
X106834Y72938D01*
X106926Y73082D01*
X107015Y73230D01*
X107101Y73379D01*
X107182Y73530D01*
X107260Y73683D01*
X107335Y73838D01*
X107405Y73995D01*
X107472Y74153D01*
X107535Y74313D01*
X107594Y74474D01*
X107649Y74637D01*
X107700Y74801D01*
X107747Y74967D01*
X107790Y75133D01*
X107829Y75300D01*
X107865Y75469D01*
X107895Y75638D01*
X107922Y75807D01*
X107945Y75978D01*
X107964Y76149D01*
X107978Y76320D01*
X107989Y76491D01*
X107995Y76663D01*
X107997Y76835D01*
X107997Y94615D01*
X107995Y94787D01*
X107989Y94959D01*
X107978Y95130D01*
X107964Y95301D01*
X107945Y95472D01*
X107922Y95643D01*
X107895Y95812D01*
X107865Y95981D01*
X107829Y96150D01*
X107790Y96317D01*
X107747Y96483D01*
X107700Y96649D01*
X107649Y96813D01*
X107594Y96976D01*
X107535Y97137D01*
X107472Y97297D01*
X107405Y97455D01*
X107335Y97612D01*
X107260Y97767D01*
X107182Y97920D01*
X107101Y98071D01*
X107015Y98220D01*
X106926Y98368D01*
X106834Y98512D01*
X106738Y98655D01*
X106639Y98795D01*
X106536Y98933D01*
X106430Y99068D01*
X106321Y99201D01*
X106208Y99331D01*
X106093Y99458D01*
X105974Y99583D01*
X105853Y99704D01*
X105728Y99823D01*
X105601Y99938D01*
X105471Y100051D01*
X105338Y100160D01*
X105203Y100266D01*
X105065Y100369D01*
X104925Y100468D01*
X104782Y100564D01*
X104638Y100656D01*
X104490Y100745D01*
X104341Y100831D01*
X104190Y100912D01*
X104037Y100990D01*
X103882Y101065D01*
X103725Y101135D01*
X103567Y101202D01*
X103407Y101265D01*
X103246Y101324D01*
X103083Y101379D01*
X102919Y101430D01*
X102753Y101477D01*
X102587Y101520D01*
X102420Y101559D01*
X102251Y101595D01*
X102082Y101625D01*
X101913Y101652D01*
X101742Y101675D01*
X101571Y101694D01*
X101400Y101708D01*
X101229Y101719D01*
X101057Y101725D01*
X100885Y101727D01*
X93773Y101727D01*
X83164Y101727D02*
X83164Y69723D01*
X83164Y101727D02*
X68940Y101727D01*
X68940Y87503D02*
X83164Y87503D01*
X56219Y101727D02*
X56219Y69723D01*
X59775Y69723D02*
X52663Y69723D01*
X52663Y101727D02*
X59775Y101727D01*
X44027Y69723D02*
X22691Y101727D01*
X44027Y101727D02*
X22691Y69723D01*
D11*
X165354Y22860D02*
X167640Y29718D01*
X163068Y29718D02*
X165354Y22860D01*
X158420Y25908D02*
X156134Y25908D01*
X158420Y25908D02*
X158497Y25910D01*
X158574Y25916D01*
X158651Y25926D01*
X158727Y25939D01*
X158802Y25957D01*
X158876Y25978D01*
X158949Y26003D01*
X159021Y26032D01*
X159091Y26064D01*
X159160Y26099D01*
X159226Y26139D01*
X159291Y26181D01*
X159353Y26227D01*
X159413Y26276D01*
X159470Y26327D01*
X159525Y26382D01*
X159576Y26439D01*
X159625Y26499D01*
X159671Y26561D01*
X159713Y26626D01*
X159753Y26692D01*
X159788Y26761D01*
X159820Y26831D01*
X159849Y26903D01*
X159874Y26976D01*
X159895Y27050D01*
X159913Y27125D01*
X159926Y27201D01*
X159936Y27278D01*
X159942Y27355D01*
X159944Y27432D01*
X159944Y27813D01*
X159942Y27898D01*
X159936Y27984D01*
X159927Y28069D01*
X159913Y28153D01*
X159896Y28237D01*
X159875Y28320D01*
X159851Y28402D01*
X159823Y28482D01*
X159791Y28562D01*
X159755Y28640D01*
X159717Y28716D01*
X159674Y28790D01*
X159629Y28862D01*
X159580Y28933D01*
X159528Y29001D01*
X159474Y29066D01*
X159416Y29129D01*
X159355Y29190D01*
X159292Y29248D01*
X159227Y29302D01*
X159159Y29354D01*
X159088Y29403D01*
X159016Y29448D01*
X158942Y29491D01*
X158866Y29529D01*
X158788Y29565D01*
X158708Y29597D01*
X158628Y29625D01*
X158546Y29649D01*
X158463Y29670D01*
X158379Y29687D01*
X158295Y29701D01*
X158210Y29710D01*
X158124Y29716D01*
X158039Y29718D01*
X157954Y29716D01*
X157868Y29710D01*
X157783Y29701D01*
X157699Y29687D01*
X157615Y29670D01*
X157532Y29649D01*
X157450Y29625D01*
X157370Y29597D01*
X157290Y29565D01*
X157212Y29529D01*
X157136Y29491D01*
X157062Y29448D01*
X156990Y29403D01*
X156919Y29354D01*
X156851Y29302D01*
X156786Y29248D01*
X156723Y29190D01*
X156662Y29129D01*
X156604Y29066D01*
X156550Y29001D01*
X156498Y28933D01*
X156449Y28862D01*
X156404Y28790D01*
X156361Y28716D01*
X156323Y28640D01*
X156287Y28562D01*
X156255Y28482D01*
X156227Y28402D01*
X156203Y28320D01*
X156182Y28237D01*
X156165Y28153D01*
X156151Y28069D01*
X156142Y27984D01*
X156136Y27898D01*
X156134Y27813D01*
X156134Y25908D01*
X156136Y25799D01*
X156142Y25691D01*
X156151Y25582D01*
X156165Y25474D01*
X156182Y25367D01*
X156204Y25260D01*
X156229Y25154D01*
X156257Y25049D01*
X156290Y24945D01*
X156326Y24843D01*
X156366Y24742D01*
X156409Y24642D01*
X156456Y24544D01*
X156507Y24447D01*
X156561Y24353D01*
X156618Y24260D01*
X156678Y24170D01*
X156742Y24081D01*
X156809Y23995D01*
X156878Y23912D01*
X156951Y23831D01*
X157027Y23753D01*
X157105Y23677D01*
X157186Y23604D01*
X157269Y23535D01*
X157355Y23468D01*
X157444Y23404D01*
X157534Y23344D01*
X157627Y23287D01*
X157721Y23233D01*
X157818Y23182D01*
X157916Y23135D01*
X158016Y23092D01*
X158117Y23052D01*
X158219Y23016D01*
X158323Y22983D01*
X158428Y22955D01*
X158534Y22930D01*
X158641Y22908D01*
X158748Y22891D01*
X158856Y22877D01*
X158965Y22868D01*
X159073Y22862D01*
X159182Y22860D01*
X148621Y25527D02*
X144049Y25527D01*
X136131Y26670D02*
X134226Y26670D01*
X134141Y26668D01*
X134055Y26662D01*
X133970Y26653D01*
X133886Y26639D01*
X133802Y26622D01*
X133719Y26601D01*
X133637Y26577D01*
X133557Y26549D01*
X133477Y26517D01*
X133399Y26481D01*
X133323Y26443D01*
X133249Y26400D01*
X133177Y26355D01*
X133106Y26306D01*
X133038Y26254D01*
X132973Y26200D01*
X132910Y26142D01*
X132849Y26081D01*
X132791Y26018D01*
X132737Y25953D01*
X132685Y25885D01*
X132636Y25814D01*
X132591Y25742D01*
X132548Y25668D01*
X132510Y25592D01*
X132474Y25514D01*
X132442Y25434D01*
X132414Y25354D01*
X132390Y25272D01*
X132369Y25189D01*
X132352Y25105D01*
X132338Y25021D01*
X132329Y24936D01*
X132323Y24850D01*
X132321Y24765D01*
X132323Y24680D01*
X132329Y24594D01*
X132338Y24509D01*
X132352Y24425D01*
X132369Y24341D01*
X132390Y24258D01*
X132414Y24176D01*
X132442Y24096D01*
X132474Y24016D01*
X132510Y23938D01*
X132548Y23862D01*
X132591Y23788D01*
X132636Y23716D01*
X132685Y23645D01*
X132737Y23577D01*
X132791Y23512D01*
X132849Y23449D01*
X132910Y23388D01*
X132973Y23330D01*
X133038Y23276D01*
X133106Y23224D01*
X133177Y23175D01*
X133249Y23130D01*
X133323Y23087D01*
X133399Y23049D01*
X133477Y23013D01*
X133557Y22981D01*
X133637Y22953D01*
X133719Y22929D01*
X133802Y22908D01*
X133886Y22891D01*
X133970Y22877D01*
X134055Y22868D01*
X134141Y22862D01*
X134226Y22860D01*
X136131Y22860D01*
X136131Y29718D01*
X134226Y29718D01*
X134149Y29716D01*
X134072Y29710D01*
X133995Y29700D01*
X133919Y29687D01*
X133844Y29669D01*
X133770Y29648D01*
X133697Y29623D01*
X133625Y29594D01*
X133555Y29562D01*
X133486Y29527D01*
X133420Y29487D01*
X133355Y29445D01*
X133293Y29399D01*
X133233Y29350D01*
X133176Y29299D01*
X133121Y29244D01*
X133070Y29187D01*
X133021Y29127D01*
X132975Y29065D01*
X132933Y29000D01*
X132893Y28934D01*
X132858Y28865D01*
X132826Y28795D01*
X132797Y28723D01*
X132772Y28650D01*
X132751Y28576D01*
X132733Y28501D01*
X132720Y28425D01*
X132710Y28348D01*
X132704Y28271D01*
X132702Y28194D01*
X132704Y28117D01*
X132710Y28040D01*
X132720Y27963D01*
X132733Y27887D01*
X132751Y27812D01*
X132772Y27738D01*
X132797Y27665D01*
X132826Y27593D01*
X132858Y27523D01*
X132893Y27454D01*
X132933Y27388D01*
X132975Y27323D01*
X133021Y27261D01*
X133070Y27201D01*
X133121Y27144D01*
X133176Y27089D01*
X133233Y27038D01*
X133293Y26989D01*
X133355Y26943D01*
X133420Y26901D01*
X133486Y26861D01*
X133555Y26826D01*
X133625Y26794D01*
X133697Y26765D01*
X133770Y26740D01*
X133844Y26719D01*
X133919Y26701D01*
X133995Y26688D01*
X134072Y26678D01*
X134149Y26672D01*
X134226Y26670D01*
X129020Y27432D02*
X129020Y22860D01*
X129020Y27432D02*
X126734Y27432D01*
X126734Y26670D01*
X124389Y27432D02*
X124389Y22860D01*
X124579Y29337D02*
X124579Y29718D01*
X124198Y29718D01*
X124198Y29337D01*
X124579Y29337D01*
X118288Y29718D02*
X118288Y22860D01*
X120193Y22860D01*
X120259Y22862D01*
X120326Y22868D01*
X120391Y22877D01*
X120457Y22891D01*
X120521Y22908D01*
X120584Y22929D01*
X120646Y22953D01*
X120706Y22982D01*
X120765Y23013D01*
X120821Y23048D01*
X120876Y23086D01*
X120928Y23127D01*
X120977Y23172D01*
X121024Y23219D01*
X121069Y23268D01*
X121110Y23320D01*
X121148Y23375D01*
X121183Y23432D01*
X121214Y23490D01*
X121243Y23550D01*
X121267Y23612D01*
X121288Y23675D01*
X121305Y23739D01*
X121319Y23805D01*
X121328Y23870D01*
X121334Y23937D01*
X121336Y24003D01*
X121336Y26289D01*
X121334Y26355D01*
X121328Y26422D01*
X121319Y26487D01*
X121305Y26553D01*
X121288Y26617D01*
X121267Y26680D01*
X121243Y26742D01*
X121214Y26802D01*
X121183Y26861D01*
X121148Y26917D01*
X121110Y26972D01*
X121069Y27024D01*
X121024Y27073D01*
X120977Y27120D01*
X120928Y27165D01*
X120876Y27206D01*
X120821Y27244D01*
X120765Y27279D01*
X120706Y27310D01*
X120646Y27339D01*
X120584Y27363D01*
X120521Y27384D01*
X120457Y27401D01*
X120391Y27415D01*
X120326Y27424D01*
X120259Y27430D01*
X120193Y27432D01*
X118288Y27432D01*
X113609Y22860D02*
X111704Y22860D01*
X113609Y22860D02*
X113675Y22862D01*
X113742Y22868D01*
X113807Y22877D01*
X113873Y22891D01*
X113937Y22908D01*
X114000Y22929D01*
X114062Y22953D01*
X114122Y22982D01*
X114181Y23013D01*
X114237Y23048D01*
X114292Y23086D01*
X114344Y23127D01*
X114393Y23172D01*
X114440Y23219D01*
X114485Y23268D01*
X114526Y23320D01*
X114564Y23375D01*
X114599Y23432D01*
X114630Y23490D01*
X114659Y23550D01*
X114683Y23612D01*
X114704Y23675D01*
X114721Y23739D01*
X114735Y23805D01*
X114744Y23870D01*
X114750Y23937D01*
X114752Y24003D01*
X114752Y26289D01*
X114750Y26355D01*
X114744Y26422D01*
X114735Y26487D01*
X114721Y26553D01*
X114704Y26617D01*
X114683Y26680D01*
X114659Y26742D01*
X114630Y26802D01*
X114599Y26861D01*
X114564Y26917D01*
X114526Y26972D01*
X114485Y27024D01*
X114440Y27073D01*
X114393Y27120D01*
X114344Y27165D01*
X114292Y27206D01*
X114237Y27244D01*
X114181Y27279D01*
X114122Y27310D01*
X114062Y27339D01*
X114000Y27363D01*
X113937Y27384D01*
X113873Y27401D01*
X113807Y27415D01*
X113742Y27424D01*
X113675Y27430D01*
X113609Y27432D01*
X111704Y27432D01*
X111704Y21717D01*
X111706Y21651D01*
X111712Y21584D01*
X111721Y21519D01*
X111735Y21453D01*
X111752Y21389D01*
X111773Y21326D01*
X111797Y21264D01*
X111826Y21204D01*
X111857Y21146D01*
X111892Y21089D01*
X111930Y21034D01*
X111971Y20982D01*
X112016Y20933D01*
X112063Y20886D01*
X112112Y20841D01*
X112164Y20800D01*
X112219Y20762D01*
X112276Y20727D01*
X112334Y20696D01*
X112394Y20667D01*
X112456Y20643D01*
X112519Y20622D01*
X112583Y20605D01*
X112649Y20591D01*
X112714Y20582D01*
X112781Y20576D01*
X112847Y20574D01*
X114371Y20574D01*
X106970Y22860D02*
X105065Y22860D01*
X106970Y22860D02*
X107036Y22862D01*
X107103Y22868D01*
X107168Y22877D01*
X107234Y22891D01*
X107298Y22908D01*
X107361Y22929D01*
X107423Y22953D01*
X107483Y22982D01*
X107542Y23013D01*
X107598Y23048D01*
X107653Y23086D01*
X107705Y23127D01*
X107754Y23172D01*
X107801Y23219D01*
X107846Y23268D01*
X107887Y23320D01*
X107925Y23375D01*
X107960Y23432D01*
X107991Y23490D01*
X108020Y23550D01*
X108044Y23612D01*
X108065Y23675D01*
X108082Y23739D01*
X108096Y23805D01*
X108105Y23870D01*
X108111Y23937D01*
X108113Y24003D01*
X108113Y25908D01*
X108111Y25985D01*
X108105Y26062D01*
X108095Y26139D01*
X108082Y26215D01*
X108064Y26290D01*
X108043Y26364D01*
X108018Y26437D01*
X107989Y26509D01*
X107957Y26579D01*
X107922Y26648D01*
X107882Y26714D01*
X107840Y26779D01*
X107794Y26841D01*
X107745Y26901D01*
X107694Y26958D01*
X107639Y27013D01*
X107582Y27064D01*
X107522Y27113D01*
X107460Y27159D01*
X107395Y27201D01*
X107329Y27241D01*
X107260Y27276D01*
X107190Y27308D01*
X107118Y27337D01*
X107045Y27362D01*
X106971Y27383D01*
X106896Y27401D01*
X106820Y27414D01*
X106743Y27424D01*
X106666Y27430D01*
X106589Y27432D01*
X106512Y27430D01*
X106435Y27424D01*
X106358Y27414D01*
X106282Y27401D01*
X106207Y27383D01*
X106133Y27362D01*
X106060Y27337D01*
X105988Y27308D01*
X105918Y27276D01*
X105849Y27241D01*
X105783Y27201D01*
X105718Y27159D01*
X105656Y27113D01*
X105596Y27064D01*
X105539Y27013D01*
X105484Y26958D01*
X105433Y26901D01*
X105384Y26841D01*
X105338Y26779D01*
X105296Y26714D01*
X105256Y26648D01*
X105221Y26579D01*
X105189Y26509D01*
X105160Y26437D01*
X105135Y26364D01*
X105114Y26290D01*
X105096Y26215D01*
X105083Y26139D01*
X105073Y26062D01*
X105067Y25985D01*
X105065Y25908D01*
X105065Y25146D01*
X108113Y25146D01*
X97572Y27432D02*
X97572Y20574D01*
X97572Y27432D02*
X95667Y27432D01*
X95601Y27430D01*
X95534Y27424D01*
X95469Y27415D01*
X95403Y27401D01*
X95339Y27384D01*
X95276Y27363D01*
X95214Y27339D01*
X95154Y27310D01*
X95096Y27279D01*
X95039Y27244D01*
X94984Y27206D01*
X94932Y27165D01*
X94883Y27120D01*
X94836Y27073D01*
X94791Y27024D01*
X94750Y26972D01*
X94712Y26917D01*
X94677Y26861D01*
X94646Y26802D01*
X94617Y26742D01*
X94593Y26680D01*
X94572Y26617D01*
X94555Y26553D01*
X94541Y26487D01*
X94532Y26422D01*
X94526Y26355D01*
X94524Y26289D01*
X94524Y24003D01*
X94526Y23937D01*
X94532Y23870D01*
X94541Y23805D01*
X94555Y23739D01*
X94572Y23675D01*
X94593Y23612D01*
X94617Y23550D01*
X94646Y23490D01*
X94677Y23432D01*
X94712Y23375D01*
X94750Y23320D01*
X94791Y23268D01*
X94836Y23219D01*
X94883Y23172D01*
X94932Y23127D01*
X94984Y23086D01*
X95039Y23048D01*
X95096Y23013D01*
X95154Y22982D01*
X95214Y22953D01*
X95276Y22929D01*
X95339Y22908D01*
X95403Y22891D01*
X95469Y22877D01*
X95534Y22868D01*
X95601Y22862D01*
X95667Y22860D01*
X97572Y22860D01*
X90010Y25527D02*
X88295Y25527D01*
X90010Y25528D02*
X90082Y25526D01*
X90154Y25520D01*
X90226Y25510D01*
X90297Y25497D01*
X90367Y25479D01*
X90436Y25458D01*
X90504Y25433D01*
X90570Y25405D01*
X90635Y25373D01*
X90698Y25337D01*
X90759Y25298D01*
X90817Y25256D01*
X90874Y25211D01*
X90927Y25162D01*
X90978Y25111D01*
X91027Y25058D01*
X91072Y25001D01*
X91114Y24943D01*
X91153Y24882D01*
X91189Y24819D01*
X91221Y24754D01*
X91249Y24688D01*
X91274Y24620D01*
X91295Y24551D01*
X91313Y24481D01*
X91326Y24410D01*
X91336Y24338D01*
X91342Y24266D01*
X91344Y24194D01*
X91342Y24122D01*
X91336Y24050D01*
X91326Y23978D01*
X91313Y23907D01*
X91295Y23837D01*
X91274Y23768D01*
X91249Y23700D01*
X91221Y23634D01*
X91189Y23569D01*
X91153Y23506D01*
X91114Y23445D01*
X91072Y23387D01*
X91027Y23330D01*
X90978Y23277D01*
X90927Y23226D01*
X90874Y23177D01*
X90817Y23132D01*
X90759Y23090D01*
X90698Y23051D01*
X90635Y23015D01*
X90570Y22983D01*
X90504Y22955D01*
X90436Y22930D01*
X90367Y22909D01*
X90297Y22891D01*
X90226Y22878D01*
X90154Y22868D01*
X90082Y22862D01*
X90010Y22860D01*
X88295Y22860D01*
X88295Y26289D01*
X88297Y26355D01*
X88303Y26422D01*
X88312Y26487D01*
X88326Y26553D01*
X88343Y26617D01*
X88364Y26680D01*
X88388Y26742D01*
X88417Y26802D01*
X88448Y26861D01*
X88483Y26917D01*
X88521Y26972D01*
X88562Y27024D01*
X88607Y27073D01*
X88654Y27120D01*
X88703Y27165D01*
X88755Y27206D01*
X88810Y27244D01*
X88867Y27279D01*
X88925Y27310D01*
X88985Y27339D01*
X89047Y27363D01*
X89110Y27384D01*
X89174Y27401D01*
X89240Y27415D01*
X89305Y27424D01*
X89372Y27430D01*
X89438Y27432D01*
X90962Y27432D01*
X81712Y29718D02*
X81712Y22860D01*
X83617Y22860D01*
X83683Y22862D01*
X83750Y22868D01*
X83815Y22877D01*
X83881Y22891D01*
X83945Y22908D01*
X84008Y22929D01*
X84070Y22953D01*
X84130Y22982D01*
X84189Y23013D01*
X84245Y23048D01*
X84300Y23086D01*
X84352Y23127D01*
X84401Y23172D01*
X84448Y23219D01*
X84493Y23268D01*
X84534Y23320D01*
X84572Y23375D01*
X84607Y23432D01*
X84638Y23490D01*
X84667Y23550D01*
X84691Y23612D01*
X84712Y23675D01*
X84729Y23739D01*
X84743Y23805D01*
X84752Y23870D01*
X84758Y23937D01*
X84760Y24003D01*
X84760Y26289D01*
X84758Y26355D01*
X84752Y26422D01*
X84743Y26487D01*
X84729Y26553D01*
X84712Y26617D01*
X84691Y26680D01*
X84667Y26742D01*
X84638Y26802D01*
X84607Y26861D01*
X84572Y26917D01*
X84534Y26972D01*
X84493Y27024D01*
X84448Y27073D01*
X84401Y27120D01*
X84352Y27165D01*
X84300Y27206D01*
X84245Y27244D01*
X84189Y27279D01*
X84130Y27310D01*
X84070Y27339D01*
X84008Y27363D01*
X83945Y27384D01*
X83881Y27401D01*
X83815Y27415D01*
X83750Y27424D01*
X83683Y27430D01*
X83617Y27432D01*
X81712Y27432D01*
X77549Y25527D02*
X75644Y24765D01*
X77549Y25527D02*
X77606Y25552D01*
X77661Y25580D01*
X77715Y25612D01*
X77766Y25647D01*
X77815Y25686D01*
X77862Y25727D01*
X77906Y25771D01*
X77947Y25818D01*
X77985Y25868D01*
X78019Y25920D01*
X78051Y25973D01*
X78079Y26029D01*
X78103Y26086D01*
X78124Y26145D01*
X78141Y26205D01*
X78154Y26266D01*
X78163Y26328D01*
X78169Y26390D01*
X78170Y26452D01*
X78167Y26514D01*
X78161Y26576D01*
X78151Y26638D01*
X78137Y26698D01*
X78119Y26758D01*
X78097Y26817D01*
X78072Y26873D01*
X78043Y26929D01*
X78011Y26982D01*
X77975Y27033D01*
X77936Y27082D01*
X77895Y27128D01*
X77850Y27172D01*
X77803Y27213D01*
X77753Y27250D01*
X77701Y27285D01*
X77647Y27316D01*
X77591Y27343D01*
X77534Y27367D01*
X77475Y27388D01*
X77415Y27404D01*
X77354Y27417D01*
X77292Y27426D01*
X77230Y27431D01*
X77168Y27432D01*
X77042Y27428D01*
X76916Y27421D01*
X76790Y27410D01*
X76664Y27395D01*
X76539Y27377D01*
X76415Y27355D01*
X76291Y27329D01*
X76168Y27300D01*
X76046Y27267D01*
X75925Y27231D01*
X75806Y27191D01*
X75687Y27147D01*
X75570Y27101D01*
X75454Y27051D01*
X75644Y24765D02*
X75587Y24740D01*
X75532Y24712D01*
X75478Y24680D01*
X75427Y24645D01*
X75378Y24606D01*
X75331Y24565D01*
X75287Y24521D01*
X75246Y24474D01*
X75208Y24424D01*
X75174Y24372D01*
X75142Y24319D01*
X75114Y24263D01*
X75090Y24206D01*
X75069Y24147D01*
X75052Y24087D01*
X75039Y24026D01*
X75030Y23964D01*
X75024Y23902D01*
X75023Y23840D01*
X75026Y23778D01*
X75032Y23716D01*
X75042Y23654D01*
X75056Y23594D01*
X75074Y23534D01*
X75096Y23475D01*
X75121Y23419D01*
X75150Y23363D01*
X75182Y23310D01*
X75218Y23259D01*
X75257Y23210D01*
X75298Y23164D01*
X75343Y23120D01*
X75390Y23079D01*
X75440Y23042D01*
X75492Y23007D01*
X75546Y22976D01*
X75602Y22949D01*
X75659Y22925D01*
X75718Y22904D01*
X75778Y22888D01*
X75839Y22875D01*
X75901Y22866D01*
X75963Y22861D01*
X76025Y22860D01*
X76178Y22864D01*
X76331Y22871D01*
X76483Y22882D01*
X76635Y22897D01*
X76787Y22916D01*
X76938Y22938D01*
X77089Y22963D01*
X77239Y22992D01*
X77388Y23025D01*
X77537Y23061D01*
X77684Y23101D01*
X77831Y23144D01*
X77977Y23191D01*
X78121Y23241D01*
X67773Y28194D02*
X65868Y29718D01*
X65868Y22860D01*
X67773Y22860D02*
X63963Y22860D01*
X56449Y25527D02*
X51877Y25527D01*
X54163Y23241D02*
X54163Y27813D01*
X42268Y29719D02*
X42186Y29717D01*
X42105Y29711D01*
X42024Y29702D01*
X41943Y29688D01*
X41864Y29671D01*
X41785Y29650D01*
X41707Y29625D01*
X41631Y29596D01*
X41556Y29564D01*
X41482Y29528D01*
X41411Y29489D01*
X41341Y29447D01*
X41273Y29401D01*
X41208Y29352D01*
X41145Y29300D01*
X41085Y29245D01*
X41027Y29187D01*
X40972Y29127D01*
X40920Y29064D01*
X40871Y28999D01*
X40825Y28931D01*
X40783Y28862D01*
X40744Y28790D01*
X40708Y28716D01*
X40676Y28641D01*
X40647Y28565D01*
X40622Y28487D01*
X40601Y28408D01*
X40584Y28329D01*
X40570Y28248D01*
X40561Y28167D01*
X40555Y28086D01*
X40553Y28004D01*
X42268Y29718D02*
X42360Y29716D01*
X42452Y29710D01*
X42544Y29701D01*
X42636Y29687D01*
X42726Y29670D01*
X42816Y29649D01*
X42905Y29624D01*
X42993Y29595D01*
X43080Y29563D01*
X43165Y29527D01*
X43248Y29488D01*
X43330Y29445D01*
X43410Y29399D01*
X43488Y29349D01*
X43564Y29297D01*
X43637Y29241D01*
X43708Y29182D01*
X43777Y29120D01*
X43843Y29055D01*
X43906Y28988D01*
X43966Y28918D01*
X44024Y28846D01*
X44078Y28771D01*
X44129Y28694D01*
X44177Y28615D01*
X44221Y28534D01*
X44262Y28451D01*
X44300Y28367D01*
X44334Y28281D01*
X44364Y28194D01*
X41125Y26670D02*
X41066Y26729D01*
X41010Y26790D01*
X40957Y26853D01*
X40906Y26919D01*
X40859Y26987D01*
X40815Y27057D01*
X40774Y27129D01*
X40736Y27203D01*
X40702Y27278D01*
X40671Y27355D01*
X40644Y27433D01*
X40620Y27513D01*
X40599Y27593D01*
X40583Y27674D01*
X40570Y27756D01*
X40560Y27838D01*
X40555Y27921D01*
X40553Y28004D01*
X41125Y26670D02*
X44364Y22860D01*
X40554Y22860D01*
X166116Y10160D02*
X167640Y14732D01*
X164592Y14732D02*
X166116Y10160D01*
X161437Y15494D02*
X159532Y17018D01*
X159532Y10160D01*
X161437Y10160D02*
X157627Y10160D01*
X154123Y13589D02*
X154121Y13731D01*
X154116Y13874D01*
X154107Y14016D01*
X154094Y14158D01*
X154078Y14299D01*
X154059Y14440D01*
X154035Y14581D01*
X154009Y14721D01*
X153978Y14860D01*
X153944Y14998D01*
X153907Y15136D01*
X153867Y15272D01*
X153822Y15408D01*
X153775Y15542D01*
X153724Y15675D01*
X153670Y15807D01*
X153612Y15937D01*
X153551Y16066D01*
X153551Y16065D02*
X153525Y16134D01*
X153496Y16200D01*
X153464Y16266D01*
X153429Y16329D01*
X153390Y16391D01*
X153348Y16451D01*
X153303Y16508D01*
X153255Y16563D01*
X153204Y16615D01*
X153151Y16665D01*
X153095Y16711D01*
X153037Y16755D01*
X152976Y16796D01*
X152914Y16834D01*
X152850Y16868D01*
X152784Y16899D01*
X152716Y16927D01*
X152647Y16951D01*
X152577Y16971D01*
X152506Y16988D01*
X152435Y17001D01*
X152363Y17010D01*
X152290Y17016D01*
X152217Y17018D01*
X152144Y17016D01*
X152071Y17010D01*
X151999Y17001D01*
X151928Y16988D01*
X151857Y16971D01*
X151787Y16951D01*
X151718Y16927D01*
X151650Y16899D01*
X151584Y16868D01*
X151520Y16834D01*
X151458Y16796D01*
X151397Y16755D01*
X151339Y16711D01*
X151283Y16665D01*
X151230Y16615D01*
X151179Y16563D01*
X151131Y16508D01*
X151086Y16451D01*
X151044Y16391D01*
X151005Y16329D01*
X150970Y16266D01*
X150938Y16200D01*
X150909Y16134D01*
X150883Y16065D01*
X150884Y16066D02*
X150823Y15937D01*
X150765Y15807D01*
X150711Y15675D01*
X150660Y15542D01*
X150613Y15408D01*
X150568Y15272D01*
X150528Y15136D01*
X150491Y14998D01*
X150457Y14860D01*
X150426Y14721D01*
X150400Y14581D01*
X150376Y14440D01*
X150357Y14299D01*
X150341Y14158D01*
X150328Y14016D01*
X150319Y13874D01*
X150314Y13731D01*
X150312Y13589D01*
X154123Y13589D02*
X154121Y13447D01*
X154116Y13304D01*
X154107Y13162D01*
X154094Y13020D01*
X154078Y12879D01*
X154059Y12738D01*
X154035Y12597D01*
X154009Y12457D01*
X153978Y12318D01*
X153944Y12180D01*
X153907Y12042D01*
X153867Y11906D01*
X153822Y11770D01*
X153775Y11636D01*
X153724Y11503D01*
X153670Y11371D01*
X153612Y11241D01*
X153551Y11112D01*
X153551Y11113D02*
X153525Y11044D01*
X153496Y10978D01*
X153464Y10912D01*
X153429Y10849D01*
X153390Y10787D01*
X153348Y10727D01*
X153303Y10670D01*
X153255Y10615D01*
X153204Y10563D01*
X153151Y10513D01*
X153095Y10467D01*
X153037Y10423D01*
X152976Y10382D01*
X152914Y10344D01*
X152850Y10310D01*
X152784Y10279D01*
X152716Y10251D01*
X152647Y10227D01*
X152577Y10207D01*
X152506Y10190D01*
X152435Y10177D01*
X152363Y10168D01*
X152290Y10162D01*
X152217Y10160D01*
X150884Y11112D02*
X150823Y11241D01*
X150765Y11371D01*
X150711Y11503D01*
X150660Y11636D01*
X150613Y11770D01*
X150568Y11906D01*
X150528Y12042D01*
X150491Y12180D01*
X150457Y12318D01*
X150426Y12457D01*
X150400Y12597D01*
X150376Y12738D01*
X150357Y12879D01*
X150341Y13020D01*
X150328Y13162D01*
X150319Y13304D01*
X150314Y13447D01*
X150312Y13589D01*
X150883Y11113D02*
X150909Y11044D01*
X150938Y10978D01*
X150970Y10912D01*
X151005Y10849D01*
X151044Y10787D01*
X151086Y10727D01*
X151131Y10670D01*
X151179Y10615D01*
X151230Y10563D01*
X151283Y10513D01*
X151339Y10467D01*
X151397Y10423D01*
X151458Y10382D01*
X151520Y10344D01*
X151584Y10310D01*
X151650Y10279D01*
X151718Y10251D01*
X151787Y10227D01*
X151857Y10207D01*
X151928Y10190D01*
X151999Y10177D01*
X152071Y10168D01*
X152144Y10162D01*
X152217Y10160D01*
X153741Y11684D02*
X150693Y15494D01*
X146700Y12827D02*
X142128Y12827D01*
X138867Y14732D02*
X137343Y10160D01*
X135819Y14732D01*
X132664Y15494D02*
X130759Y17018D01*
X130759Y10160D01*
X132664Y10160D02*
X128854Y10160D01*
X123254Y17019D02*
X123172Y17017D01*
X123091Y17011D01*
X123010Y17002D01*
X122929Y16988D01*
X122850Y16971D01*
X122771Y16950D01*
X122693Y16925D01*
X122617Y16896D01*
X122542Y16864D01*
X122468Y16828D01*
X122397Y16789D01*
X122327Y16747D01*
X122259Y16701D01*
X122194Y16652D01*
X122131Y16600D01*
X122071Y16545D01*
X122013Y16487D01*
X121958Y16427D01*
X121906Y16364D01*
X121857Y16299D01*
X121811Y16231D01*
X121769Y16162D01*
X121730Y16090D01*
X121694Y16016D01*
X121662Y15941D01*
X121633Y15865D01*
X121608Y15787D01*
X121587Y15708D01*
X121570Y15629D01*
X121556Y15548D01*
X121547Y15467D01*
X121541Y15386D01*
X121539Y15304D01*
X123254Y17018D02*
X123346Y17016D01*
X123438Y17010D01*
X123530Y17001D01*
X123622Y16987D01*
X123712Y16970D01*
X123802Y16949D01*
X123891Y16924D01*
X123979Y16895D01*
X124066Y16863D01*
X124151Y16827D01*
X124234Y16788D01*
X124316Y16745D01*
X124396Y16699D01*
X124474Y16649D01*
X124550Y16597D01*
X124623Y16541D01*
X124694Y16482D01*
X124763Y16420D01*
X124829Y16355D01*
X124892Y16288D01*
X124952Y16218D01*
X125010Y16146D01*
X125064Y16071D01*
X125115Y15994D01*
X125163Y15915D01*
X125207Y15834D01*
X125248Y15751D01*
X125286Y15667D01*
X125320Y15581D01*
X125350Y15494D01*
X122111Y13970D02*
X122052Y14029D01*
X121996Y14090D01*
X121943Y14153D01*
X121892Y14219D01*
X121845Y14287D01*
X121801Y14357D01*
X121760Y14429D01*
X121722Y14503D01*
X121688Y14578D01*
X121657Y14655D01*
X121630Y14733D01*
X121606Y14813D01*
X121585Y14893D01*
X121569Y14974D01*
X121556Y15056D01*
X121546Y15138D01*
X121541Y15221D01*
X121539Y15304D01*
X122111Y13970D02*
X125349Y10160D01*
X121539Y10160D01*
X114026Y12827D02*
X109454Y12827D01*
X101537Y13970D02*
X99632Y13970D01*
X99547Y13968D01*
X99461Y13962D01*
X99376Y13953D01*
X99292Y13939D01*
X99208Y13922D01*
X99125Y13901D01*
X99043Y13877D01*
X98963Y13849D01*
X98883Y13817D01*
X98805Y13781D01*
X98729Y13743D01*
X98655Y13700D01*
X98583Y13655D01*
X98512Y13606D01*
X98444Y13554D01*
X98379Y13500D01*
X98316Y13442D01*
X98255Y13381D01*
X98197Y13318D01*
X98143Y13253D01*
X98091Y13185D01*
X98042Y13114D01*
X97997Y13042D01*
X97954Y12968D01*
X97916Y12892D01*
X97880Y12814D01*
X97848Y12734D01*
X97820Y12654D01*
X97796Y12572D01*
X97775Y12489D01*
X97758Y12405D01*
X97744Y12321D01*
X97735Y12236D01*
X97729Y12150D01*
X97727Y12065D01*
X97729Y11980D01*
X97735Y11894D01*
X97744Y11809D01*
X97758Y11725D01*
X97775Y11641D01*
X97796Y11558D01*
X97820Y11476D01*
X97848Y11396D01*
X97880Y11316D01*
X97916Y11238D01*
X97954Y11162D01*
X97997Y11088D01*
X98042Y11016D01*
X98091Y10945D01*
X98143Y10877D01*
X98197Y10812D01*
X98255Y10749D01*
X98316Y10688D01*
X98379Y10630D01*
X98444Y10576D01*
X98512Y10524D01*
X98583Y10475D01*
X98655Y10430D01*
X98729Y10387D01*
X98805Y10349D01*
X98883Y10313D01*
X98963Y10281D01*
X99043Y10253D01*
X99125Y10229D01*
X99208Y10208D01*
X99292Y10191D01*
X99376Y10177D01*
X99461Y10168D01*
X99547Y10162D01*
X99632Y10160D01*
X101537Y10160D01*
X101537Y17018D01*
X99632Y17018D01*
X99555Y17016D01*
X99478Y17010D01*
X99401Y17000D01*
X99325Y16987D01*
X99250Y16969D01*
X99176Y16948D01*
X99103Y16923D01*
X99031Y16894D01*
X98961Y16862D01*
X98892Y16827D01*
X98826Y16787D01*
X98761Y16745D01*
X98699Y16699D01*
X98639Y16650D01*
X98582Y16599D01*
X98527Y16544D01*
X98476Y16487D01*
X98427Y16427D01*
X98381Y16365D01*
X98339Y16300D01*
X98299Y16234D01*
X98264Y16165D01*
X98232Y16095D01*
X98203Y16023D01*
X98178Y15950D01*
X98157Y15876D01*
X98139Y15801D01*
X98126Y15725D01*
X98116Y15648D01*
X98110Y15571D01*
X98108Y15494D01*
X98110Y15417D01*
X98116Y15340D01*
X98126Y15263D01*
X98139Y15187D01*
X98157Y15112D01*
X98178Y15038D01*
X98203Y14965D01*
X98232Y14893D01*
X98264Y14823D01*
X98299Y14754D01*
X98339Y14688D01*
X98381Y14623D01*
X98427Y14561D01*
X98476Y14501D01*
X98527Y14444D01*
X98582Y14389D01*
X98639Y14338D01*
X98699Y14289D01*
X98761Y14243D01*
X98826Y14201D01*
X98892Y14161D01*
X98961Y14126D01*
X99031Y14094D01*
X99103Y14065D01*
X99176Y14040D01*
X99250Y14019D01*
X99325Y14001D01*
X99401Y13988D01*
X99478Y13978D01*
X99555Y13972D01*
X99632Y13970D01*
X94425Y14732D02*
X94425Y10160D01*
X94425Y14732D02*
X92139Y14732D01*
X92139Y13970D01*
X89794Y14732D02*
X89794Y10160D01*
X89985Y16637D02*
X89985Y17018D01*
X89604Y17018D01*
X89604Y16637D01*
X89985Y16637D01*
X83693Y17018D02*
X83693Y10160D01*
X85598Y10160D01*
X85664Y10162D01*
X85731Y10168D01*
X85796Y10177D01*
X85862Y10191D01*
X85926Y10208D01*
X85989Y10229D01*
X86051Y10253D01*
X86111Y10282D01*
X86170Y10313D01*
X86226Y10348D01*
X86281Y10386D01*
X86333Y10427D01*
X86382Y10472D01*
X86429Y10519D01*
X86474Y10568D01*
X86515Y10620D01*
X86553Y10675D01*
X86588Y10732D01*
X86619Y10790D01*
X86648Y10850D01*
X86672Y10912D01*
X86693Y10975D01*
X86710Y11039D01*
X86724Y11105D01*
X86733Y11170D01*
X86739Y11237D01*
X86741Y11303D01*
X86741Y13589D01*
X86739Y13655D01*
X86733Y13722D01*
X86724Y13787D01*
X86710Y13853D01*
X86693Y13917D01*
X86672Y13980D01*
X86648Y14042D01*
X86619Y14102D01*
X86588Y14161D01*
X86553Y14217D01*
X86515Y14272D01*
X86474Y14324D01*
X86429Y14373D01*
X86382Y14420D01*
X86333Y14465D01*
X86281Y14506D01*
X86226Y14544D01*
X86170Y14579D01*
X86111Y14610D01*
X86051Y14639D01*
X85989Y14663D01*
X85926Y14684D01*
X85862Y14701D01*
X85796Y14715D01*
X85731Y14724D01*
X85664Y14730D01*
X85598Y14732D01*
X83693Y14732D01*
X79014Y10160D02*
X77109Y10160D01*
X79014Y10160D02*
X79080Y10162D01*
X79147Y10168D01*
X79212Y10177D01*
X79278Y10191D01*
X79342Y10208D01*
X79405Y10229D01*
X79467Y10253D01*
X79527Y10282D01*
X79586Y10313D01*
X79642Y10348D01*
X79697Y10386D01*
X79749Y10427D01*
X79798Y10472D01*
X79845Y10519D01*
X79890Y10568D01*
X79931Y10620D01*
X79969Y10675D01*
X80004Y10732D01*
X80035Y10790D01*
X80064Y10850D01*
X80088Y10912D01*
X80109Y10975D01*
X80126Y11039D01*
X80140Y11105D01*
X80149Y11170D01*
X80155Y11237D01*
X80157Y11303D01*
X80157Y13589D01*
X80155Y13655D01*
X80149Y13722D01*
X80140Y13787D01*
X80126Y13853D01*
X80109Y13917D01*
X80088Y13980D01*
X80064Y14042D01*
X80035Y14102D01*
X80004Y14161D01*
X79969Y14217D01*
X79931Y14272D01*
X79890Y14324D01*
X79845Y14373D01*
X79798Y14420D01*
X79749Y14465D01*
X79697Y14506D01*
X79642Y14544D01*
X79586Y14579D01*
X79527Y14610D01*
X79467Y14639D01*
X79405Y14663D01*
X79342Y14684D01*
X79278Y14701D01*
X79212Y14715D01*
X79147Y14724D01*
X79080Y14730D01*
X79014Y14732D01*
X77109Y14732D01*
X77109Y9017D01*
X77111Y8951D01*
X77117Y8884D01*
X77126Y8819D01*
X77140Y8753D01*
X77157Y8689D01*
X77178Y8626D01*
X77202Y8564D01*
X77231Y8504D01*
X77262Y8446D01*
X77297Y8389D01*
X77335Y8334D01*
X77376Y8282D01*
X77421Y8233D01*
X77468Y8186D01*
X77517Y8141D01*
X77569Y8100D01*
X77624Y8062D01*
X77681Y8027D01*
X77739Y7996D01*
X77799Y7967D01*
X77861Y7943D01*
X77924Y7922D01*
X77988Y7905D01*
X78054Y7891D01*
X78119Y7882D01*
X78186Y7876D01*
X78252Y7874D01*
X79776Y7874D01*
X72375Y10160D02*
X70470Y10160D01*
X72375Y10160D02*
X72441Y10162D01*
X72508Y10168D01*
X72573Y10177D01*
X72639Y10191D01*
X72703Y10208D01*
X72766Y10229D01*
X72828Y10253D01*
X72888Y10282D01*
X72947Y10313D01*
X73003Y10348D01*
X73058Y10386D01*
X73110Y10427D01*
X73159Y10472D01*
X73206Y10519D01*
X73251Y10568D01*
X73292Y10620D01*
X73330Y10675D01*
X73365Y10732D01*
X73396Y10790D01*
X73425Y10850D01*
X73449Y10912D01*
X73470Y10975D01*
X73487Y11039D01*
X73501Y11105D01*
X73510Y11170D01*
X73516Y11237D01*
X73518Y11303D01*
X73518Y13208D01*
X73516Y13285D01*
X73510Y13362D01*
X73500Y13439D01*
X73487Y13515D01*
X73469Y13590D01*
X73448Y13664D01*
X73423Y13737D01*
X73394Y13809D01*
X73362Y13879D01*
X73327Y13948D01*
X73287Y14014D01*
X73245Y14079D01*
X73199Y14141D01*
X73150Y14201D01*
X73099Y14258D01*
X73044Y14313D01*
X72987Y14364D01*
X72927Y14413D01*
X72865Y14459D01*
X72800Y14501D01*
X72734Y14541D01*
X72665Y14576D01*
X72595Y14608D01*
X72523Y14637D01*
X72450Y14662D01*
X72376Y14683D01*
X72301Y14701D01*
X72225Y14714D01*
X72148Y14724D01*
X72071Y14730D01*
X71994Y14732D01*
X71917Y14730D01*
X71840Y14724D01*
X71763Y14714D01*
X71687Y14701D01*
X71612Y14683D01*
X71538Y14662D01*
X71465Y14637D01*
X71393Y14608D01*
X71323Y14576D01*
X71254Y14541D01*
X71188Y14501D01*
X71123Y14459D01*
X71061Y14413D01*
X71001Y14364D01*
X70944Y14313D01*
X70889Y14258D01*
X70838Y14201D01*
X70789Y14141D01*
X70743Y14079D01*
X70701Y14014D01*
X70661Y13948D01*
X70626Y13879D01*
X70594Y13809D01*
X70565Y13737D01*
X70540Y13664D01*
X70519Y13590D01*
X70501Y13515D01*
X70488Y13439D01*
X70478Y13362D01*
X70472Y13285D01*
X70470Y13208D01*
X70470Y12446D01*
X73518Y12446D01*
X62977Y14732D02*
X62977Y7874D01*
X62977Y14732D02*
X61072Y14732D01*
X61006Y14730D01*
X60939Y14724D01*
X60874Y14715D01*
X60808Y14701D01*
X60744Y14684D01*
X60681Y14663D01*
X60619Y14639D01*
X60559Y14610D01*
X60501Y14579D01*
X60444Y14544D01*
X60389Y14506D01*
X60337Y14465D01*
X60288Y14420D01*
X60241Y14373D01*
X60196Y14324D01*
X60155Y14272D01*
X60117Y14217D01*
X60082Y14161D01*
X60051Y14102D01*
X60022Y14042D01*
X59998Y13980D01*
X59977Y13917D01*
X59960Y13853D01*
X59946Y13787D01*
X59937Y13722D01*
X59931Y13655D01*
X59929Y13589D01*
X59929Y11303D01*
X59931Y11237D01*
X59937Y11170D01*
X59946Y11105D01*
X59960Y11039D01*
X59977Y10975D01*
X59998Y10912D01*
X60022Y10850D01*
X60051Y10790D01*
X60082Y10732D01*
X60117Y10675D01*
X60155Y10620D01*
X60196Y10568D01*
X60241Y10519D01*
X60288Y10472D01*
X60337Y10427D01*
X60389Y10386D01*
X60444Y10348D01*
X60501Y10313D01*
X60559Y10282D01*
X60619Y10253D01*
X60681Y10229D01*
X60744Y10208D01*
X60808Y10191D01*
X60874Y10177D01*
X60939Y10168D01*
X61006Y10162D01*
X61072Y10160D01*
X62977Y10160D01*
X55415Y12827D02*
X53701Y12827D01*
X55415Y12828D02*
X55487Y12826D01*
X55559Y12820D01*
X55631Y12810D01*
X55702Y12797D01*
X55772Y12779D01*
X55841Y12758D01*
X55909Y12733D01*
X55975Y12705D01*
X56040Y12673D01*
X56103Y12637D01*
X56164Y12598D01*
X56222Y12556D01*
X56279Y12511D01*
X56332Y12462D01*
X56383Y12411D01*
X56432Y12358D01*
X56477Y12301D01*
X56519Y12243D01*
X56558Y12182D01*
X56594Y12119D01*
X56626Y12054D01*
X56654Y11988D01*
X56679Y11920D01*
X56700Y11851D01*
X56718Y11781D01*
X56731Y11710D01*
X56741Y11638D01*
X56747Y11566D01*
X56749Y11494D01*
X56747Y11422D01*
X56741Y11350D01*
X56731Y11278D01*
X56718Y11207D01*
X56700Y11137D01*
X56679Y11068D01*
X56654Y11000D01*
X56626Y10934D01*
X56594Y10869D01*
X56558Y10806D01*
X56519Y10745D01*
X56477Y10687D01*
X56432Y10630D01*
X56383Y10577D01*
X56332Y10526D01*
X56279Y10477D01*
X56222Y10432D01*
X56164Y10390D01*
X56103Y10351D01*
X56040Y10315D01*
X55975Y10283D01*
X55909Y10255D01*
X55841Y10230D01*
X55772Y10209D01*
X55702Y10191D01*
X55631Y10178D01*
X55559Y10168D01*
X55487Y10162D01*
X55415Y10160D01*
X53701Y10160D01*
X53701Y13589D01*
X53703Y13655D01*
X53709Y13722D01*
X53718Y13787D01*
X53732Y13853D01*
X53749Y13917D01*
X53770Y13980D01*
X53794Y14042D01*
X53823Y14102D01*
X53854Y14161D01*
X53889Y14217D01*
X53927Y14272D01*
X53968Y14324D01*
X54013Y14373D01*
X54060Y14420D01*
X54109Y14465D01*
X54161Y14506D01*
X54216Y14544D01*
X54273Y14579D01*
X54331Y14610D01*
X54391Y14639D01*
X54453Y14663D01*
X54516Y14684D01*
X54580Y14701D01*
X54646Y14715D01*
X54711Y14724D01*
X54778Y14730D01*
X54844Y14732D01*
X56368Y14732D01*
X47117Y17018D02*
X47117Y10160D01*
X49022Y10160D01*
X49088Y10162D01*
X49155Y10168D01*
X49220Y10177D01*
X49286Y10191D01*
X49350Y10208D01*
X49413Y10229D01*
X49475Y10253D01*
X49535Y10282D01*
X49594Y10313D01*
X49650Y10348D01*
X49705Y10386D01*
X49757Y10427D01*
X49806Y10472D01*
X49853Y10519D01*
X49898Y10568D01*
X49939Y10620D01*
X49977Y10675D01*
X50012Y10732D01*
X50043Y10790D01*
X50072Y10850D01*
X50096Y10912D01*
X50117Y10975D01*
X50134Y11039D01*
X50148Y11105D01*
X50157Y11170D01*
X50163Y11237D01*
X50165Y11303D01*
X50165Y13589D01*
X50163Y13655D01*
X50157Y13722D01*
X50148Y13787D01*
X50134Y13853D01*
X50117Y13917D01*
X50096Y13980D01*
X50072Y14042D01*
X50043Y14102D01*
X50012Y14161D01*
X49977Y14217D01*
X49939Y14272D01*
X49898Y14324D01*
X49853Y14373D01*
X49806Y14420D01*
X49757Y14465D01*
X49705Y14506D01*
X49650Y14544D01*
X49594Y14579D01*
X49535Y14610D01*
X49475Y14639D01*
X49413Y14663D01*
X49350Y14684D01*
X49286Y14701D01*
X49220Y14715D01*
X49155Y14724D01*
X49088Y14730D01*
X49022Y14732D01*
X47117Y14732D01*
X42954Y12827D02*
X41049Y12065D01*
X42954Y12827D02*
X43011Y12852D01*
X43066Y12880D01*
X43120Y12912D01*
X43171Y12947D01*
X43220Y12986D01*
X43267Y13027D01*
X43311Y13071D01*
X43352Y13118D01*
X43390Y13168D01*
X43424Y13220D01*
X43456Y13273D01*
X43484Y13329D01*
X43508Y13386D01*
X43529Y13445D01*
X43546Y13505D01*
X43559Y13566D01*
X43568Y13628D01*
X43574Y13690D01*
X43575Y13752D01*
X43572Y13814D01*
X43566Y13876D01*
X43556Y13938D01*
X43542Y13998D01*
X43524Y14058D01*
X43502Y14117D01*
X43477Y14173D01*
X43448Y14229D01*
X43416Y14282D01*
X43380Y14333D01*
X43341Y14382D01*
X43300Y14428D01*
X43255Y14472D01*
X43208Y14513D01*
X43158Y14550D01*
X43106Y14585D01*
X43052Y14616D01*
X42996Y14643D01*
X42939Y14667D01*
X42880Y14688D01*
X42820Y14704D01*
X42759Y14717D01*
X42697Y14726D01*
X42635Y14731D01*
X42573Y14732D01*
X42447Y14728D01*
X42321Y14721D01*
X42195Y14710D01*
X42069Y14695D01*
X41944Y14677D01*
X41820Y14655D01*
X41696Y14629D01*
X41573Y14600D01*
X41451Y14567D01*
X41330Y14531D01*
X41211Y14491D01*
X41092Y14447D01*
X40975Y14401D01*
X40859Y14351D01*
X41049Y12065D02*
X40992Y12040D01*
X40937Y12012D01*
X40883Y11980D01*
X40832Y11945D01*
X40783Y11906D01*
X40736Y11865D01*
X40692Y11821D01*
X40651Y11774D01*
X40613Y11724D01*
X40579Y11672D01*
X40547Y11619D01*
X40519Y11563D01*
X40495Y11506D01*
X40474Y11447D01*
X40457Y11387D01*
X40444Y11326D01*
X40435Y11264D01*
X40429Y11202D01*
X40428Y11140D01*
X40431Y11078D01*
X40437Y11016D01*
X40447Y10954D01*
X40461Y10894D01*
X40479Y10834D01*
X40501Y10775D01*
X40526Y10719D01*
X40555Y10663D01*
X40587Y10610D01*
X40623Y10559D01*
X40662Y10510D01*
X40703Y10464D01*
X40748Y10420D01*
X40795Y10379D01*
X40845Y10342D01*
X40897Y10307D01*
X40951Y10276D01*
X41007Y10249D01*
X41064Y10225D01*
X41123Y10204D01*
X41183Y10188D01*
X41244Y10175D01*
X41306Y10166D01*
X41368Y10161D01*
X41430Y10160D01*
X41583Y10164D01*
X41736Y10171D01*
X41888Y10182D01*
X42040Y10197D01*
X42192Y10216D01*
X42343Y10238D01*
X42494Y10263D01*
X42644Y10292D01*
X42793Y10325D01*
X42942Y10361D01*
X43089Y10401D01*
X43236Y10444D01*
X43382Y10491D01*
X43526Y10541D01*
X31082Y17019D02*
X31000Y17017D01*
X30919Y17011D01*
X30838Y17002D01*
X30757Y16988D01*
X30678Y16971D01*
X30599Y16950D01*
X30521Y16925D01*
X30445Y16896D01*
X30370Y16864D01*
X30296Y16828D01*
X30225Y16789D01*
X30155Y16747D01*
X30087Y16701D01*
X30022Y16652D01*
X29959Y16600D01*
X29899Y16545D01*
X29841Y16487D01*
X29786Y16427D01*
X29734Y16364D01*
X29685Y16299D01*
X29639Y16231D01*
X29597Y16162D01*
X29558Y16090D01*
X29522Y16016D01*
X29490Y15941D01*
X29461Y15865D01*
X29436Y15787D01*
X29415Y15708D01*
X29398Y15629D01*
X29384Y15548D01*
X29375Y15467D01*
X29369Y15386D01*
X29367Y15304D01*
X31082Y17018D02*
X31174Y17016D01*
X31266Y17010D01*
X31358Y17001D01*
X31450Y16987D01*
X31540Y16970D01*
X31630Y16949D01*
X31719Y16924D01*
X31807Y16895D01*
X31894Y16863D01*
X31979Y16827D01*
X32062Y16788D01*
X32144Y16745D01*
X32224Y16699D01*
X32302Y16649D01*
X32378Y16597D01*
X32451Y16541D01*
X32522Y16482D01*
X32591Y16420D01*
X32657Y16355D01*
X32720Y16288D01*
X32780Y16218D01*
X32838Y16146D01*
X32892Y16071D01*
X32943Y15994D01*
X32991Y15915D01*
X33035Y15834D01*
X33076Y15751D01*
X33114Y15667D01*
X33148Y15581D01*
X33178Y15494D01*
X29939Y13970D02*
X29880Y14029D01*
X29824Y14090D01*
X29771Y14153D01*
X29720Y14219D01*
X29673Y14287D01*
X29629Y14357D01*
X29588Y14429D01*
X29550Y14503D01*
X29516Y14578D01*
X29485Y14655D01*
X29458Y14733D01*
X29434Y14813D01*
X29413Y14893D01*
X29397Y14974D01*
X29384Y15056D01*
X29374Y15138D01*
X29369Y15221D01*
X29367Y15304D01*
X29939Y13970D02*
X33178Y10160D01*
X29368Y10160D01*
X21855Y12827D02*
X17283Y12827D01*
X19569Y10541D02*
X19569Y15113D01*
X9769Y10160D02*
X7864Y10160D01*
X7779Y10162D01*
X7693Y10168D01*
X7608Y10177D01*
X7524Y10191D01*
X7440Y10208D01*
X7357Y10229D01*
X7275Y10253D01*
X7195Y10281D01*
X7115Y10313D01*
X7037Y10349D01*
X6961Y10387D01*
X6887Y10430D01*
X6815Y10475D01*
X6744Y10524D01*
X6676Y10576D01*
X6611Y10630D01*
X6548Y10688D01*
X6487Y10749D01*
X6429Y10812D01*
X6375Y10877D01*
X6323Y10945D01*
X6274Y11016D01*
X6229Y11088D01*
X6186Y11162D01*
X6148Y11238D01*
X6112Y11316D01*
X6080Y11396D01*
X6052Y11476D01*
X6028Y11558D01*
X6007Y11641D01*
X5990Y11725D01*
X5976Y11809D01*
X5967Y11894D01*
X5961Y11980D01*
X5959Y12065D01*
X5961Y12150D01*
X5967Y12236D01*
X5976Y12321D01*
X5990Y12405D01*
X6007Y12489D01*
X6028Y12572D01*
X6052Y12654D01*
X6080Y12734D01*
X6112Y12814D01*
X6148Y12892D01*
X6186Y12968D01*
X6229Y13042D01*
X6274Y13114D01*
X6323Y13185D01*
X6375Y13253D01*
X6429Y13318D01*
X6487Y13381D01*
X6548Y13442D01*
X6611Y13500D01*
X6676Y13554D01*
X6744Y13606D01*
X6815Y13655D01*
X6887Y13700D01*
X6961Y13743D01*
X7037Y13781D01*
X7115Y13817D01*
X7195Y13849D01*
X7275Y13877D01*
X7357Y13901D01*
X7440Y13922D01*
X7524Y13939D01*
X7608Y13953D01*
X7693Y13962D01*
X7779Y13968D01*
X7864Y13970D01*
X7483Y17018D02*
X9769Y17018D01*
X7483Y17018D02*
X7406Y17016D01*
X7329Y17010D01*
X7252Y17000D01*
X7176Y16987D01*
X7101Y16969D01*
X7027Y16948D01*
X6954Y16923D01*
X6882Y16894D01*
X6812Y16862D01*
X6743Y16827D01*
X6677Y16787D01*
X6612Y16745D01*
X6550Y16699D01*
X6490Y16650D01*
X6433Y16599D01*
X6378Y16544D01*
X6327Y16487D01*
X6278Y16427D01*
X6232Y16365D01*
X6190Y16300D01*
X6150Y16234D01*
X6115Y16165D01*
X6083Y16095D01*
X6054Y16023D01*
X6029Y15950D01*
X6008Y15876D01*
X5990Y15801D01*
X5977Y15725D01*
X5967Y15648D01*
X5961Y15571D01*
X5959Y15494D01*
X5961Y15417D01*
X5967Y15340D01*
X5977Y15263D01*
X5990Y15187D01*
X6008Y15112D01*
X6029Y15038D01*
X6054Y14965D01*
X6083Y14893D01*
X6115Y14823D01*
X6150Y14754D01*
X6190Y14688D01*
X6232Y14623D01*
X6278Y14561D01*
X6327Y14501D01*
X6378Y14444D01*
X6433Y14389D01*
X6490Y14338D01*
X6550Y14289D01*
X6612Y14243D01*
X6677Y14201D01*
X6743Y14161D01*
X6812Y14126D01*
X6882Y14094D01*
X6954Y14065D01*
X7027Y14040D01*
X7101Y14019D01*
X7176Y14001D01*
X7252Y13988D01*
X7329Y13978D01*
X7406Y13972D01*
X7483Y13970D01*
X9007Y13970D01*
M02*
